<svg width="562" height="353" viewBox="0 0 562 353" fill="none" xmlns="http://www.w3.org/2000/svg">
<rect y="205.874" width="211.617" height="208.061" rx="21" transform="rotate(-45 0 205.874)" fill="#75F1E3"/>
<path d="M326.263 209.842C315.06 206.84 308.412 195.325 311.413 184.122L355.313 20.2844C358.315 9.08165 369.83 2.4334 381.033 5.43518L541.436 48.4149C552.638 51.4166 559.287 62.9317 556.285 74.1345L512.385 237.972C509.383 249.175 497.868 255.823 486.665 252.822L326.263 209.842Z" fill="#75F1CA"/>
<rect x="149.488" y="48.8535" width="13.6044" height="208.061" rx="6.8022" transform="rotate(-45 149.488 48.8535)" fill="#75F1D4"/>
<path d="M327.685 66.2556C332.89 64.8609 337.653 69.6238 336.258 74.8288L311.045 168.925C309.65 174.13 303.144 175.873 299.334 172.063L230.451 103.18C226.641 99.3694 228.384 92.8632 233.589 91.4685L327.685 66.2556Z" fill="#75E4F1"/>
</svg>
